<svg width="3592" height="145" viewBox="0 0 3592 145" fill="none" xmlns="http://www.w3.org/2000/svg">
<mask id="path-1-inside-1_136_549" fill="white">
<path d="M152.759 72.2139L114.568 138.443H38.1895L0 72.2139L38.1895 5.9834H114.568L152.759 72.2139ZM76.377 30.5518C54.1349 30.5518 36.1035 49.2049 36.1035 72.2139C36.1037 95.2227 54.135 113.875 76.377 113.875C98.6187 113.875 116.649 95.2226 116.649 72.2139C116.649 49.205 98.6189 30.5519 76.377 30.5518Z"/>
</mask>
<path d="M152.759 72.2139L153.625 72.7134L153.913 72.2139L153.625 71.7143L152.759 72.2139ZM114.568 138.443V139.443H115.146L115.435 138.943L114.568 138.443ZM38.1895 138.443L37.3232 138.943L37.6117 139.443H38.1895V138.443ZM0 72.2139L-0.866301 71.7143L-1.15433 72.2139L-0.866298 72.7134L0 72.2139ZM38.1895 5.9834V4.9834H37.6117L37.3232 5.48388L38.1895 5.9834ZM114.568 5.9834L115.435 5.48387L115.146 4.9834H114.568V5.9834ZM76.377 30.5518L76.377 29.5518H76.377V30.5518ZM36.1035 72.2139L35.1035 72.2139L35.1035 72.2139L36.1035 72.2139ZM76.377 113.875L76.377 114.875L76.377 114.875L76.377 113.875ZM116.649 72.2139L117.649 72.2139V72.2139H116.649ZM152.759 72.2139L151.892 71.7143L113.702 137.944L114.568 138.443L115.435 138.943L153.625 72.7134L152.759 72.2139ZM114.568 138.443V137.443H38.1895V138.443V139.443H114.568V138.443ZM38.1895 138.443L39.0558 137.944L0.866298 71.7143L0 72.2139L-0.866298 72.7134L37.3232 138.943L38.1895 138.443ZM0 72.2139L0.866301 72.7134L39.0558 6.48292L38.1895 5.9834L37.3232 5.48388L-0.866301 71.7143L0 72.2139ZM38.1895 5.9834V6.9834H114.568V5.9834V4.9834H38.1895V5.9834ZM114.568 5.9834L113.702 6.48293L151.892 72.7134L152.759 72.2139L153.625 71.7143L115.435 5.48387L114.568 5.9834ZM76.377 30.5518V29.5518C53.5509 29.5518 35.1035 48.6848 35.1035 72.2139H36.1035H37.1035C37.1035 49.7249 54.7189 31.5518 76.377 31.5518V30.5518ZM36.1035 72.2139L35.1035 72.2139C35.1037 95.7428 53.5511 114.875 76.377 114.875V113.875V112.875C54.719 112.875 37.1037 94.7026 37.1035 72.2139L36.1035 72.2139ZM76.377 113.875L76.377 114.875C99.2027 114.875 117.649 95.7427 117.649 72.2139L116.649 72.2139L115.649 72.2139C115.649 94.7025 98.0348 112.875 76.3769 112.875L76.377 113.875ZM116.649 72.2139H117.649C117.649 48.6849 99.2029 29.5519 76.377 29.5518L76.377 30.5518L76.3769 31.5518C98.0349 31.5519 115.649 49.725 115.649 72.2139H116.649Z" fill="#323725" mask="url(#path-1-inside-1_136_549)"/>
<mask id="path-3-inside-2_136_549" fill="white">
<path d="M284.973 0C324.855 0.000131588 357.185 32.3309 357.186 72.2129C357.186 112.095 324.855 144.427 284.973 144.427C245.09 144.427 212.759 112.095 212.759 72.2129C212.759 32.3308 245.091 0 284.973 0ZM251.641 38.8838V105.542H318.299V38.8838H251.641Z"/>
</mask>
<path d="M284.973 0L284.973 -1H284.973V0ZM357.186 72.2129L358.186 72.2129L358.186 72.2129L357.186 72.2129ZM284.973 144.427L284.973 145.427L284.973 145.427L284.973 144.427ZM212.759 72.2129L211.759 72.2129V72.2129H212.759ZM251.641 38.8838V37.8838H250.641V38.8838H251.641ZM251.641 105.542H250.641V106.542H251.641V105.542ZM318.299 105.542V106.542H319.299V105.542H318.299ZM318.299 38.8838H319.299V37.8838H318.299V38.8838ZM284.973 0L284.973 1C324.302 1.00013 356.185 32.8832 356.186 72.2129L357.186 72.2129L358.186 72.2129C358.185 31.7786 325.407 -0.999867 284.973 -1L284.973 0ZM357.186 72.2129H356.186C356.186 111.543 324.303 143.427 284.973 143.427L284.973 144.427L284.973 145.427C325.407 145.427 358.186 112.647 358.186 72.2129H357.186ZM284.973 144.427V143.427C245.643 143.427 213.759 111.543 213.759 72.2129H212.759H211.759C211.759 112.647 244.538 145.427 284.973 145.427V144.427ZM212.759 72.2129L213.759 72.2129C213.759 32.8831 245.643 1 284.973 1V0V-1C244.538 -1 211.759 31.7785 211.759 72.2129L212.759 72.2129ZM251.641 38.8838H250.641V105.542H251.641H252.641V38.8838H251.641ZM251.641 105.542V106.542H318.299V105.542V104.542H251.641V105.542ZM318.299 105.542H319.299V38.8838H318.299H317.299V105.542H318.299ZM318.299 38.8838V37.8838H251.641V38.8838V39.8838H318.299V38.8838Z" fill="#323725" mask="url(#path-3-inside-2_136_549)"/>
<mask id="path-5-inside-3_136_549" fill="white">
<path d="M553.28 140.261H417.186V4.16602H553.28V140.261ZM463.711 34.7168L442.186 72.2119L463.711 109.707H506.761L528.286 72.2119L506.761 34.7168H463.711Z"/>
</mask>
<path d="M553.28 140.261V141.261H554.28V140.261H553.28ZM417.186 140.261H416.186V141.261H417.186V140.261ZM417.186 4.16602V3.16602H416.186V4.16602H417.186ZM553.28 4.16602H554.28V3.16602H553.28V4.16602ZM463.711 34.7168V33.7168H463.132L462.844 34.2189L463.711 34.7168ZM442.186 72.2119L441.318 71.714L441.032 72.2119L441.318 72.7098L442.186 72.2119ZM463.711 109.707L462.844 110.205L463.132 110.707H463.711V109.707ZM506.761 109.707V110.707H507.34L507.628 110.205L506.761 109.707ZM528.286 72.2119L529.153 72.7098L529.439 72.2119L529.153 71.714L528.286 72.2119ZM506.761 34.7168L507.628 34.2189L507.34 33.7168H506.761V34.7168ZM553.28 140.261V139.261H417.186V140.261V141.261H553.28V140.261ZM417.186 140.261H418.186V4.16602H417.186H416.186V140.261H417.186ZM417.186 4.16602V5.16602H553.28V4.16602V3.16602H417.186V4.16602ZM553.28 4.16602H552.28V140.261H553.28H554.28V4.16602H553.28ZM463.711 34.7168L462.844 34.2189L441.318 71.714L442.186 72.2119L443.053 72.7098L464.578 35.2147L463.711 34.7168ZM442.186 72.2119L441.318 72.7098L462.844 110.205L463.711 109.707L464.578 109.209L443.053 71.714L442.186 72.2119ZM463.711 109.707V110.707H506.761V109.707V108.707H463.711V109.707ZM506.761 109.707L507.628 110.205L529.153 72.7098L528.286 72.2119L527.419 71.714L505.893 109.209L506.761 109.707ZM528.286 72.2119L529.153 71.714L507.628 34.2189L506.761 34.7168L505.893 35.2147L527.419 72.7098L528.286 72.2119ZM506.761 34.7168V33.7168H463.711V34.7168V35.7168H506.761V34.7168Z" fill="#323725" mask="url(#path-5-inside-3_136_549)"/>
<mask id="path-7-inside-4_136_549" fill="white">
<path d="M760.386 55.6992L732.291 142.166H641.375L613.28 55.6992L686.833 2.26074L760.386 55.6992ZM686.828 39.4209C664.586 39.4209 646.556 58.073 646.556 81.082C646.556 104.091 664.586 122.743 686.828 122.743C709.07 122.743 727.101 104.091 727.101 81.082C727.101 58.073 709.07 39.4209 686.828 39.4209Z"/>
</mask>
<path d="M760.386 55.6992L761.337 56.0082L761.561 55.3172L760.974 54.8902L760.386 55.6992ZM732.291 142.166V143.166H733.018L733.242 142.475L732.291 142.166ZM641.375 142.166L640.424 142.475L640.648 143.166H641.375V142.166ZM613.28 55.6992L612.692 54.8902L612.105 55.3172L612.329 56.0082L613.28 55.6992ZM686.833 2.26074L687.421 1.45172L686.833 1.02468L686.245 1.45172L686.833 2.26074ZM686.828 39.4209L686.828 38.4209H686.828V39.4209ZM686.828 122.743L686.828 123.743L686.828 123.743L686.828 122.743ZM760.386 55.6992L759.435 55.3902L731.34 141.857L732.291 142.166L733.242 142.475L761.337 56.0082L760.386 55.6992ZM732.291 142.166V141.166H641.375V142.166V143.166H732.291V142.166ZM641.375 142.166L642.326 141.857L614.231 55.3902L613.28 55.6992L612.329 56.0082L640.424 142.475L641.375 142.166ZM613.28 55.6992L613.868 56.5082L687.421 3.06976L686.833 2.26074L686.245 1.45172L612.692 54.8902L613.28 55.6992ZM686.833 2.26074L686.245 3.06976L759.798 56.5082L760.386 55.6992L760.974 54.8902L687.421 1.45172L686.833 2.26074ZM686.828 39.4209V38.4209C664.002 38.4209 645.556 57.553 645.556 81.082H646.556H647.556C647.556 58.5931 665.17 40.4209 686.828 40.4209V39.4209ZM646.556 81.082H645.556C645.556 104.611 664.002 123.743 686.828 123.743V122.743V121.743C665.17 121.743 647.556 103.571 647.556 81.082H646.556ZM686.828 122.743L686.828 123.743C709.654 123.743 728.101 104.611 728.101 81.082H727.101H726.101C726.101 103.571 708.486 121.743 686.828 121.743L686.828 122.743ZM727.101 81.082H728.101C728.101 57.553 709.654 38.4209 686.828 38.4209L686.828 39.4209L686.828 40.4209C708.486 40.4209 726.101 58.5931 726.101 81.082H727.101Z" fill="#323725" mask="url(#path-7-inside-4_136_549)"/>
<mask id="path-9-inside-5_136_549" fill="white">
<path d="M956.479 140.26H820.386V4.1665H956.479V140.26ZM888.278 37.3032C869.083 37.3032 853.521 52.8645 853.521 72.0601C853.522 91.2556 869.083 106.817 888.278 106.817C907.474 106.817 923.035 91.2556 923.035 72.0601C923.035 52.8645 907.474 37.3032 888.278 37.3032Z"/>
</mask>
<path d="M956.479 140.26V141.26C957.032 141.26 957.479 140.813 957.479 140.26H956.479ZM820.386 140.26H819.386C819.386 140.813 819.833 141.26 820.386 141.26V140.26ZM820.386 4.1665V3.1665C819.833 3.1665 819.386 3.61422 819.386 4.1665H820.386ZM956.479 4.1665H957.479C957.479 3.61422 957.032 3.1665 956.479 3.1665V4.1665ZM888.278 37.3032L888.278 36.3032L888.278 36.3032L888.278 37.3032ZM853.521 72.0601L852.521 72.0601L852.521 72.0601L853.521 72.0601ZM888.278 106.817L888.278 107.817H888.278V106.817ZM923.035 72.0601L924.035 72.0601V72.0601H923.035ZM956.479 140.26V139.26H820.386V140.26V141.26H956.479V140.26ZM820.386 140.26H821.386V4.1665H820.386H819.386V140.26H820.386ZM820.386 4.1665V5.1665H956.479V4.1665V3.1665H820.386V4.1665ZM956.479 4.1665H955.479V140.26H956.479H957.479V4.1665H956.479ZM888.278 37.3032L888.278 36.3032C868.53 36.3032 852.521 52.3122 852.521 72.0601H853.521H854.521C854.521 53.4168 869.635 38.3032 888.278 38.3032L888.278 37.3032ZM853.521 72.0601L852.521 72.0601C852.522 91.8079 868.53 107.817 888.278 107.817L888.278 106.817L888.278 105.817C869.635 105.817 854.522 90.7033 854.521 72.0601L853.521 72.0601ZM888.278 106.817V107.817C908.026 107.817 924.035 91.8079 924.035 72.0601L923.035 72.0601L922.035 72.0601C922.035 90.7033 906.922 105.817 888.278 105.817V106.817ZM923.035 72.0601H924.035C924.035 52.3122 908.026 36.3032 888.278 36.3032V37.3032V38.3032C906.922 38.3032 922.035 53.4168 922.035 72.0601H923.035Z" fill="#323725" mask="url(#path-9-inside-5_136_549)"/>
<mask id="path-11-inside-6_136_549" fill="white">
<path d="M1169.24 72.2134L1131.05 138.444H1054.67L1016.48 72.2134L1054.67 5.98291H1131.05L1169.24 72.2134ZM1095.64 31.02C1095.62 54.0108 1077.6 72.6419 1055.37 72.6421L1055.36 72.6411V72.6421H1055.37C1077.6 72.6423 1095.62 91.2727 1095.64 114.263C1095.66 91.2736 1113.68 72.6437 1135.91 72.6421V72.6411C1113.68 72.6395 1095.66 54.0099 1095.64 31.02Z"/>
</mask>
<path d="M1169.24 72.2134L1170.1 72.7129C1170.28 72.4037 1170.28 72.023 1170.1 71.7139L1169.24 72.2134ZM1131.05 138.444V139.444C1131.41 139.444 1131.74 139.253 1131.92 138.943L1131.05 138.444ZM1054.67 138.444L1053.8 138.943C1053.98 139.253 1054.31 139.444 1054.67 139.444V138.444ZM1016.48 72.2134L1015.61 71.7139C1015.43 72.023 1015.43 72.4037 1015.61 72.7129L1016.48 72.2134ZM1054.67 5.98291V4.98291C1054.31 4.98291 1053.98 5.17372 1053.8 5.48339L1054.67 5.98291ZM1131.05 5.98291L1131.92 5.48339C1131.74 5.17372 1131.41 4.98291 1131.05 4.98291V5.98291ZM1095.64 31.02L1096.64 31.0191C1096.64 30.4672 1096.19 30.02 1095.64 30.02C1095.09 30.02 1094.64 30.4672 1094.64 31.0191L1095.64 31.02ZM1055.36 72.6411L1055.68 71.6924C1055.38 71.5908 1055.04 71.6419 1054.78 71.8299C1054.52 72.0178 1054.36 72.3197 1054.36 72.6411H1055.36ZM1055.36 72.6421H1054.36C1054.36 73.1944 1054.81 73.6421 1055.36 73.6421V72.6421ZM1095.64 114.263L1094.64 114.264C1094.64 114.816 1095.09 115.263 1095.64 115.263C1096.19 115.263 1096.64 114.816 1096.64 114.264L1095.64 114.263ZM1135.91 72.6421L1135.91 73.6421C1136.46 73.6421 1136.91 73.1943 1136.91 72.6421H1135.91ZM1135.91 72.6411H1136.91C1136.91 72.0889 1136.46 71.6412 1135.91 71.6411L1135.91 72.6411ZM1169.24 72.2134L1168.37 71.7139L1130.18 137.944L1131.05 138.444L1131.92 138.943L1170.1 72.7129L1169.24 72.2134ZM1131.05 138.444V137.444H1054.67V138.444V139.444H1131.05V138.444ZM1054.67 138.444L1055.54 137.944L1017.35 71.7139L1016.48 72.2134L1015.61 72.7129L1053.8 138.943L1054.67 138.444ZM1016.48 72.2134L1017.35 72.7129L1055.54 6.48243L1054.67 5.98291L1053.8 5.48339L1015.61 71.7139L1016.48 72.2134ZM1054.67 5.98291V6.98291H1131.05V5.98291V4.98291H1054.67V5.98291ZM1131.05 5.98291L1130.18 6.48243L1168.37 72.7129L1169.24 72.2134L1170.1 71.7139L1131.92 5.48339L1131.05 5.98291ZM1095.64 31.02L1094.64 31.0191C1094.62 53.4903 1077.01 71.6419 1055.37 71.6421L1055.37 72.6421L1055.37 73.6421C1078.18 73.6419 1096.62 54.5314 1096.64 31.0209L1095.64 31.02ZM1055.37 72.6421L1055.68 71.6934L1055.68 71.6924L1055.36 72.6411L1055.05 73.5898L1055.05 73.5908L1055.37 72.6421ZM1055.36 72.6411H1054.36V72.6421H1055.36H1056.36V72.6411H1055.36ZM1055.36 72.6421V73.6421H1055.37V72.6421V71.6421H1055.36V72.6421ZM1055.37 72.6421L1055.37 73.6421C1077.01 73.6423 1094.62 91.7933 1094.64 114.264L1095.64 114.263L1096.64 114.262C1096.62 90.7521 1078.18 71.6423 1055.37 71.6421L1055.37 72.6421ZM1095.64 114.263L1096.64 114.264C1096.66 91.7942 1114.27 73.6436 1135.91 73.6421L1135.91 72.6421L1135.91 71.6421C1113.1 71.6437 1094.66 90.753 1094.64 114.262L1095.64 114.263ZM1135.91 72.6421H1136.91V72.6411H1135.91H1134.91V72.6421H1135.91ZM1135.91 72.6411L1135.91 71.6411C1114.26 71.6396 1096.66 53.4893 1096.64 31.0191L1095.64 31.02L1094.64 31.0209C1094.66 54.5306 1113.1 73.6395 1135.91 73.6411L1135.91 72.6411Z" fill="#323725" mask="url(#path-11-inside-6_136_549)"/>
<mask id="path-13-inside-7_136_549" fill="white">
<path d="M1365.33 140.26H1229.24V4.1665H1365.33V140.26ZM1243.12 65.27V79.1567H1351.44V65.27H1243.12Z"/>
</mask>
<path d="M1365.33 140.26V141.26H1366.33V140.26H1365.33ZM1229.24 140.26H1228.24V141.26H1229.24V140.26ZM1229.24 4.1665V3.1665H1228.24V4.1665H1229.24ZM1365.33 4.1665H1366.33V3.1665H1365.33V4.1665ZM1243.12 65.27V64.27H1242.12V65.27H1243.12ZM1243.12 79.1567H1242.12V80.1567H1243.12V79.1567ZM1351.44 79.1567V80.1567H1352.44V79.1567H1351.44ZM1351.44 65.27H1352.44V64.27H1351.44V65.27ZM1365.33 140.26V139.26H1229.24V140.26V141.26H1365.33V140.26ZM1229.24 140.26H1230.24V4.1665H1229.24H1228.24V140.26H1229.24ZM1229.24 4.1665V5.1665H1365.33V4.1665V3.1665H1229.24V4.1665ZM1365.33 4.1665H1364.33V140.26H1365.33H1366.33V4.1665H1365.33ZM1243.12 65.27H1242.12V79.1567H1243.12H1244.12V65.27H1243.12ZM1243.12 79.1567V80.1567H1351.44V79.1567V78.1567H1243.12V79.1567ZM1351.44 79.1567H1352.44V65.27H1351.44H1350.44V79.1567H1351.44ZM1351.44 65.27V64.27H1243.12V65.27V66.27H1351.44V65.27Z" fill="#323725" mask="url(#path-13-inside-7_136_549)"/>
<mask id="path-15-inside-8_136_549" fill="white">
<path d="M1561.43 140.261H1425.33V4.16602H1561.43V140.261ZM1493.37 62.3916L1459.99 29.0068L1450.17 38.8271L1483.55 72.2119L1450.17 105.6L1459.99 115.419L1493.37 82.0312L1526.76 115.421L1536.58 105.601L1503.19 72.2109L1536.58 38.8262L1526.76 29.0059L1493.37 62.3916Z"/>
</mask>
<path d="M1561.43 140.261V141.261H1562.43V140.261H1561.43ZM1425.33 140.261H1424.33V141.261H1425.33V140.261ZM1425.33 4.16602V3.16602H1424.33V4.16602H1425.33ZM1561.43 4.16602H1562.43V3.16602H1561.43V4.16602ZM1493.37 62.3916L1492.67 63.0987L1493.37 63.8058L1494.08 63.0987L1493.37 62.3916ZM1459.99 29.0068L1460.7 28.2997L1459.99 27.5926L1459.28 28.2997L1459.99 29.0068ZM1450.17 38.8271L1449.46 38.12L1448.75 38.8271L1449.46 39.5343L1450.17 38.8271ZM1483.55 72.2119L1484.26 72.919L1484.97 72.2119L1484.26 71.5048L1483.55 72.2119ZM1450.17 105.6L1449.46 104.893L1448.75 105.6L1449.46 106.307L1450.17 105.6ZM1459.99 115.419L1459.28 116.126L1459.99 116.833L1460.69 116.126L1459.99 115.419ZM1493.37 82.0312L1494.08 81.3241L1493.37 80.617L1492.67 81.3242L1493.37 82.0312ZM1526.76 115.421L1526.06 116.128L1526.76 116.835L1527.47 116.128L1526.76 115.421ZM1536.58 105.601L1537.29 106.308L1538 105.601L1537.29 104.893L1536.58 105.601ZM1503.19 72.2109L1502.49 71.5038L1501.78 72.2109L1502.49 72.918L1503.19 72.2109ZM1536.58 38.8262L1537.29 39.5333L1537.99 38.8262L1537.29 38.1191L1536.58 38.8262ZM1526.76 29.0059L1527.47 28.2988L1526.76 27.5916L1526.05 28.2987L1526.76 29.0059ZM1561.43 140.261V139.261H1425.33V140.261V141.261H1561.43V140.261ZM1425.33 140.261H1426.33V4.16602H1425.33H1424.33V140.261H1425.33ZM1425.33 4.16602V5.16602H1561.43V4.16602V3.16602H1425.33V4.16602ZM1561.43 4.16602H1560.43V140.261H1561.43H1562.43V4.16602H1561.43ZM1493.37 62.3916L1494.08 61.6845L1460.7 28.2997L1459.99 29.0068L1459.28 29.7139L1492.67 63.0987L1493.37 62.3916ZM1459.99 29.0068L1459.28 28.2997L1449.46 38.12L1450.17 38.8271L1450.88 39.5343L1460.7 29.7139L1459.99 29.0068ZM1450.17 38.8271L1449.46 39.5343L1482.85 72.919L1483.55 72.2119L1484.26 71.5048L1450.88 38.12L1450.17 38.8271ZM1483.55 72.2119L1482.85 71.5048L1449.46 104.893L1450.17 105.6L1450.87 106.307L1484.26 72.919L1483.55 72.2119ZM1450.17 105.6L1449.46 106.307L1459.28 116.126L1459.99 115.419L1460.69 114.712L1450.87 104.893L1450.17 105.6ZM1459.99 115.419L1460.69 116.126L1494.08 82.7383L1493.37 82.0312L1492.67 81.3242L1459.28 114.712L1459.99 115.419ZM1493.37 82.0312L1492.67 82.7384L1526.06 116.128L1526.76 115.421L1527.47 114.714L1494.08 81.3241L1493.37 82.0312ZM1526.76 115.421L1527.47 116.128L1537.29 106.308L1536.58 105.601L1535.88 104.893L1526.06 114.714L1526.76 115.421ZM1536.58 105.601L1537.29 104.893L1503.9 71.5038L1503.19 72.2109L1502.49 72.918L1535.88 106.308L1536.58 105.601ZM1503.19 72.2109L1503.9 72.9181L1537.29 39.5333L1536.58 38.8262L1535.87 38.119L1502.49 71.5038L1503.19 72.2109ZM1536.58 38.8262L1537.29 38.1191L1527.47 28.2988L1526.76 29.0059L1526.05 29.7129L1535.87 39.5332L1536.58 38.8262ZM1526.76 29.0059L1526.05 28.2987L1492.67 61.6845L1493.37 62.3916L1494.08 63.0987L1527.47 29.713L1526.76 29.0059Z" fill="#323725" mask="url(#path-15-inside-8_136_549)"/>
<mask id="path-17-inside-9_136_549" fill="white">
<path d="M1693.64 0C1733.52 0 1765.85 32.3308 1765.85 72.2129C1765.85 112.095 1733.52 144.427 1693.64 144.427C1653.76 144.426 1621.43 112.095 1621.43 72.2129C1621.43 32.3309 1653.76 0.000258425 1693.64 0ZM1646.51 72.2139L1693.64 119.349L1740.78 72.2139L1693.64 25.0791L1646.51 72.2139Z"/>
</mask>
<path d="M1693.64 0L1693.64 -1L1693.64 -1L1693.64 0ZM1765.85 72.2129L1766.85 72.2129L1766.85 72.2129L1765.85 72.2129ZM1693.64 144.427L1693.64 145.427H1693.64V144.427ZM1621.43 72.2129L1620.43 72.2129V72.2129H1621.43ZM1646.51 72.2139L1645.8 71.5068L1645.09 72.2139L1645.8 72.921L1646.51 72.2139ZM1693.64 119.349L1692.93 120.056L1693.64 120.763L1694.35 120.056L1693.64 119.349ZM1740.78 72.2139L1741.48 72.921L1742.19 72.2139L1741.48 71.5068L1740.78 72.2139ZM1693.64 25.0791L1694.35 24.372L1693.64 23.6649L1692.93 24.372L1693.64 25.0791ZM1693.64 0V1C1732.97 1 1764.85 32.8831 1764.85 72.2129L1765.85 72.2129L1766.85 72.2129C1766.85 31.7785 1734.07 -1 1693.64 -1V0ZM1765.85 72.2129H1764.85C1764.85 111.543 1732.97 143.427 1693.64 143.427V144.427V145.427C1734.07 145.427 1766.85 112.647 1766.85 72.2129H1765.85ZM1693.64 144.427L1693.64 143.427C1654.31 143.427 1622.43 111.543 1622.43 72.2129H1621.43H1620.43C1620.43 112.647 1653.21 145.426 1693.64 145.427L1693.64 144.427ZM1621.43 72.2129L1622.43 72.2129C1622.43 32.8832 1654.31 1.00025 1693.64 1L1693.64 0L1693.64 -1C1653.21 -0.999738 1620.43 31.7787 1620.43 72.2129L1621.43 72.2129ZM1646.51 72.2139L1645.8 72.921L1692.93 120.056L1693.64 119.349L1694.35 118.642L1647.21 71.5068L1646.51 72.2139ZM1693.64 119.349L1694.35 120.056L1741.48 72.921L1740.78 72.2139L1740.07 71.5068L1692.93 118.642L1693.64 119.349ZM1740.78 72.2139L1741.48 71.5068L1694.35 24.372L1693.64 25.0791L1692.93 25.7862L1740.07 72.921L1740.78 72.2139ZM1693.64 25.0791L1692.93 24.372L1645.8 71.5068L1646.51 72.2139L1647.21 72.921L1694.35 25.7862L1693.64 25.0791Z" fill="#323725" mask="url(#path-17-inside-9_136_549)"/>
<mask id="path-19-inside-10_136_549" fill="white">
<path d="M1978.61 72.2139L1940.42 138.443H1864.04L1825.85 72.2139L1864.04 5.9834H1940.42L1978.61 72.2139ZM1902.23 30.5518C1879.99 30.5518 1861.96 49.2049 1861.96 72.2139C1861.96 95.2227 1879.99 113.875 1902.23 113.875C1924.47 113.875 1942.5 95.2226 1942.5 72.2139C1942.5 49.205 1924.47 30.5519 1902.23 30.5518Z"/>
</mask>
<path d="M1978.61 72.2139L1979.48 72.7134L1979.77 72.2139L1979.48 71.7143L1978.61 72.2139ZM1940.42 138.443V139.443H1941L1941.29 138.943L1940.42 138.443ZM1864.04 138.443L1863.18 138.943L1863.47 139.443H1864.04V138.443ZM1825.85 72.2139L1824.99 71.7143L1824.7 72.2139L1824.99 72.7134L1825.85 72.2139ZM1864.04 5.9834V4.9834H1863.47L1863.18 5.48388L1864.04 5.9834ZM1940.42 5.9834L1941.29 5.48387L1941 4.9834H1940.42V5.9834ZM1902.23 30.5518L1902.23 29.5518H1902.23V30.5518ZM1861.96 72.2139L1860.96 72.2139L1860.96 72.2139L1861.96 72.2139ZM1902.23 113.875L1902.23 114.875L1902.23 114.875L1902.23 113.875ZM1942.5 72.2139L1943.5 72.2139V72.2139H1942.5ZM1978.61 72.2139L1977.75 71.7143L1939.56 137.944L1940.42 138.443L1941.29 138.943L1979.48 72.7134L1978.61 72.2139ZM1940.42 138.443V137.443H1864.04V138.443V139.443H1940.42V138.443ZM1864.04 138.443L1864.91 137.944L1826.72 71.7143L1825.85 72.2139L1824.99 72.7134L1863.18 138.943L1864.04 138.443ZM1825.85 72.2139L1826.72 72.7134L1864.91 6.48292L1864.04 5.9834L1863.18 5.48388L1824.99 71.7143L1825.85 72.2139ZM1864.04 5.9834V6.9834H1940.42V5.9834V4.9834H1864.04V5.9834ZM1940.42 5.9834L1939.56 6.48293L1977.75 72.7134L1978.61 72.2139L1979.48 71.7143L1941.29 5.48387L1940.42 5.9834ZM1902.23 30.5518V29.5518C1879.4 29.5518 1860.96 48.6848 1860.96 72.2139H1861.96H1862.96C1862.96 49.7249 1880.57 31.5518 1902.23 31.5518V30.5518ZM1861.96 72.2139L1860.96 72.2139C1860.96 95.7428 1879.4 114.875 1902.23 114.875V113.875V112.875C1880.57 112.875 1862.96 94.7026 1862.96 72.2139L1861.96 72.2139ZM1902.23 113.875L1902.23 114.875C1925.06 114.875 1943.5 95.7427 1943.5 72.2139L1942.5 72.2139L1941.5 72.2139C1941.5 94.7025 1923.89 112.875 1902.23 112.875L1902.23 113.875ZM1942.5 72.2139H1943.5C1943.5 48.6849 1925.06 29.5519 1902.23 29.5518L1902.23 30.5518L1902.23 31.5518C1923.89 31.5519 1941.5 49.725 1941.5 72.2139H1942.5Z" fill="#323725" mask="url(#path-19-inside-10_136_549)"/>
<mask id="path-21-inside-11_136_549" fill="white">
<path d="M2110.83 0C2150.71 0.000131588 2183.04 32.3309 2183.04 72.2129C2183.04 112.095 2150.71 144.427 2110.83 144.427C2070.94 144.427 2038.61 112.095 2038.61 72.2129C2038.61 32.3308 2070.94 0 2110.83 0ZM2077.49 38.8838V105.542H2144.15V38.8838H2077.49Z"/>
</mask>
<path d="M2110.83 0L2110.83 -1H2110.83V0ZM2183.04 72.2129L2184.04 72.2129L2184.04 72.2129L2183.04 72.2129ZM2110.83 144.427L2110.83 145.427L2110.83 145.427L2110.83 144.427ZM2038.61 72.2129L2037.61 72.2129V72.2129H2038.61ZM2077.49 38.8838V37.8838H2076.49V38.8838H2077.49ZM2077.49 105.542H2076.49V106.542H2077.49V105.542ZM2144.15 105.542V106.542H2145.15V105.542H2144.15ZM2144.15 38.8838H2145.15V37.8838H2144.15V38.8838ZM2110.83 0L2110.83 1C2150.16 1.00013 2182.04 32.8832 2182.04 72.2129L2183.04 72.2129L2184.04 72.2129C2184.04 31.7786 2151.26 -0.999867 2110.83 -1L2110.83 0ZM2183.04 72.2129H2182.04C2182.04 111.543 2150.16 143.427 2110.83 143.427L2110.83 144.427L2110.83 145.427C2151.26 145.427 2184.04 112.647 2184.04 72.2129H2183.04ZM2110.83 144.427V143.427C2071.5 143.427 2039.61 111.543 2039.61 72.2129H2038.61H2037.61C2037.61 112.647 2070.39 145.427 2110.83 145.427V144.427ZM2038.61 72.2129L2039.61 72.2129C2039.61 32.8831 2071.5 1 2110.83 1V0V-1C2070.39 -1 2037.61 31.7785 2037.61 72.2129L2038.61 72.2129ZM2077.49 38.8838H2076.49V105.542H2077.49H2078.49V38.8838H2077.49ZM2077.49 105.542V106.542H2144.15V105.542V104.542H2077.49V105.542ZM2144.15 105.542H2145.15V38.8838H2144.15H2143.15V105.542H2144.15ZM2144.15 38.8838V37.8838H2077.49V38.8838V39.8838H2144.15V38.8838Z" fill="#323725" mask="url(#path-21-inside-11_136_549)"/>
<mask id="path-23-inside-12_136_549" fill="white">
<path d="M2379.13 140.261H2243.04V4.16602H2379.13V140.261ZM2289.56 34.7168L2268.04 72.2119L2289.56 109.707H2332.61L2354.14 72.2119L2332.61 34.7168H2289.56Z"/>
</mask>
<path d="M2379.13 140.261V141.261H2380.13V140.261H2379.13ZM2243.04 140.261H2242.04V141.261H2243.04V140.261ZM2243.04 4.16602V3.16602H2242.04V4.16602H2243.04ZM2379.13 4.16602H2380.13V3.16602H2379.13V4.16602ZM2289.56 34.7168V33.7168H2288.99L2288.7 34.2189L2289.56 34.7168ZM2268.04 72.2119L2267.17 71.714L2266.89 72.2119L2267.17 72.7098L2268.04 72.2119ZM2289.56 109.707L2288.7 110.205L2288.99 110.707H2289.56V109.707ZM2332.61 109.707V110.707H2333.19L2333.48 110.205L2332.61 109.707ZM2354.14 72.2119L2355.01 72.7098L2355.29 72.2119L2355.01 71.714L2354.14 72.2119ZM2332.61 34.7168L2333.48 34.2189L2333.19 33.7168H2332.61V34.7168ZM2379.13 140.261V139.261H2243.04V140.261V141.261H2379.13V140.261ZM2243.04 140.261H2244.04V4.16602H2243.04H2242.04V140.261H2243.04ZM2243.04 4.16602V5.16602H2379.13V4.16602V3.16602H2243.04V4.16602ZM2379.13 4.16602H2378.13V140.261H2379.13H2380.13V4.16602H2379.13ZM2289.56 34.7168L2288.7 34.2189L2267.17 71.714L2268.04 72.2119L2268.91 72.7098L2290.43 35.2147L2289.56 34.7168ZM2268.04 72.2119L2267.17 72.7098L2288.7 110.205L2289.56 109.707L2290.43 109.209L2268.91 71.714L2268.04 72.2119ZM2289.56 109.707V110.707H2332.61V109.707V108.707H2289.56V109.707ZM2332.61 109.707L2333.48 110.205L2355.01 72.7098L2354.14 72.2119L2353.27 71.714L2331.75 109.209L2332.61 109.707ZM2354.14 72.2119L2355.01 71.714L2333.48 34.2189L2332.61 34.7168L2331.75 35.2147L2353.27 72.7098L2354.14 72.2119ZM2332.61 34.7168V33.7168H2289.56V34.7168V35.7168H2332.61V34.7168Z" fill="#323725" mask="url(#path-23-inside-12_136_549)"/>
<mask id="path-25-inside-13_136_549" fill="white">
<path d="M2586.24 55.6992L2558.14 142.166H2467.23L2439.13 55.6992L2512.69 2.26074L2586.24 55.6992ZM2512.68 39.4209C2490.44 39.4209 2472.41 58.073 2472.41 81.082C2472.41 104.091 2490.44 122.743 2512.68 122.743C2534.92 122.743 2552.95 104.091 2552.95 81.082C2552.95 58.073 2534.92 39.4209 2512.68 39.4209Z"/>
</mask>
<path d="M2586.24 55.6992L2587.19 56.0082L2587.41 55.3172L2586.83 54.8902L2586.24 55.6992ZM2558.14 142.166V143.166H2558.87L2559.1 142.475L2558.14 142.166ZM2467.23 142.166L2466.28 142.475L2466.5 143.166H2467.23V142.166ZM2439.13 55.6992L2438.55 54.8902L2437.96 55.3172L2438.18 56.0082L2439.13 55.6992ZM2512.69 2.26074L2513.27 1.45172L2512.69 1.02468L2512.1 1.45172L2512.69 2.26074ZM2512.68 39.4209L2512.68 38.4209H2512.68V39.4209ZM2512.68 122.743L2512.68 123.743L2512.68 123.743L2512.68 122.743ZM2586.24 55.6992L2585.29 55.3902L2557.19 141.857L2558.14 142.166L2559.1 142.475L2587.19 56.0082L2586.24 55.6992ZM2558.14 142.166V141.166H2467.23V142.166V143.166H2558.14V142.166ZM2467.23 142.166L2468.18 141.857L2440.08 55.3902L2439.13 55.6992L2438.18 56.0082L2466.28 142.475L2467.23 142.166ZM2439.13 55.6992L2439.72 56.5082L2513.27 3.06976L2512.69 2.26074L2512.1 1.45172L2438.55 54.8902L2439.13 55.6992ZM2512.69 2.26074L2512.1 3.06976L2585.65 56.5082L2586.24 55.6992L2586.83 54.8902L2513.27 1.45172L2512.69 2.26074ZM2512.68 39.4209V38.4209C2489.86 38.4209 2471.41 57.553 2471.41 81.082H2472.41H2473.41C2473.41 58.5931 2491.02 40.4209 2512.68 40.4209V39.4209ZM2472.41 81.082H2471.41C2471.41 104.611 2489.86 123.743 2512.68 123.743V122.743V121.743C2491.02 121.743 2473.41 103.571 2473.41 81.082H2472.41ZM2512.68 122.743L2512.68 123.743C2535.51 123.743 2553.95 104.611 2553.95 81.082H2552.95H2551.95C2551.95 103.571 2534.34 121.743 2512.68 121.743L2512.68 122.743ZM2552.95 81.082H2553.95C2553.95 57.553 2535.51 38.4209 2512.68 38.4209L2512.68 39.4209L2512.68 40.4209C2534.34 40.4209 2551.95 58.5931 2551.95 81.082H2552.95Z" fill="#323725" mask="url(#path-25-inside-13_136_549)"/>
<mask id="path-27-inside-14_136_549" fill="white">
<path d="M2782.33 140.26H2646.24V4.1665H2782.33V140.26ZM2714.13 37.3032C2694.94 37.3032 2679.38 52.8645 2679.38 72.0601C2679.38 91.2556 2694.94 106.817 2714.13 106.817C2733.33 106.817 2748.89 91.2556 2748.89 72.0601C2748.89 52.8645 2733.33 37.3032 2714.13 37.3032Z"/>
</mask>
<path d="M2782.33 140.26V141.26C2782.89 141.26 2783.33 140.813 2783.33 140.26H2782.33ZM2646.24 140.26H2645.24C2645.24 140.813 2645.69 141.26 2646.24 141.26V140.26ZM2646.24 4.1665V3.1665C2645.69 3.1665 2645.24 3.61422 2645.24 4.1665H2646.24ZM2782.33 4.1665H2783.33C2783.33 3.61422 2782.89 3.1665 2782.33 3.1665V4.1665ZM2714.13 37.3032L2714.13 36.3032L2714.13 36.3032L2714.13 37.3032ZM2679.38 72.0601L2678.37 72.0601L2678.38 72.0601L2679.38 72.0601ZM2714.13 106.817L2714.13 107.817H2714.13V106.817ZM2748.89 72.0601L2749.89 72.0601V72.0601H2748.89ZM2782.33 140.26V139.26H2646.24V140.26V141.26H2782.33V140.26ZM2646.24 140.26H2647.24V4.1665H2646.24H2645.24V140.26H2646.24ZM2646.24 4.1665V5.1665H2782.33V4.1665V3.1665H2646.24V4.1665ZM2782.33 4.1665H2781.33V140.26H2782.33H2783.33V4.1665H2782.33ZM2714.13 37.3032L2714.13 36.3032C2694.38 36.3032 2678.38 52.3122 2678.38 72.0601H2679.38H2680.38C2680.38 53.4168 2695.49 38.3032 2714.13 38.3032L2714.13 37.3032ZM2679.38 72.0601L2678.38 72.0601C2678.38 91.8079 2694.38 107.817 2714.13 107.817L2714.13 106.817L2714.13 105.817C2695.49 105.817 2680.38 90.7033 2680.37 72.0601L2679.38 72.0601ZM2714.13 106.817V107.817C2733.88 107.817 2749.89 91.8079 2749.89 72.0601L2748.89 72.0601L2747.89 72.0601C2747.89 90.7033 2732.78 105.817 2714.13 105.817V106.817ZM2748.89 72.0601H2749.89C2749.89 52.3122 2733.88 36.3032 2714.13 36.3032V37.3032V38.3032C2732.78 38.3032 2747.89 53.4168 2747.89 72.0601H2748.89Z" fill="#323725" mask="url(#path-27-inside-14_136_549)"/>
<mask id="path-29-inside-15_136_549" fill="white">
<path d="M2995.09 72.2134L2956.9 138.444H2880.52L2842.33 72.2134L2880.52 5.98291H2956.9L2995.09 72.2134ZM2921.49 31.02C2921.47 54.0108 2903.45 72.6419 2881.22 72.6421L2881.22 72.6411V72.6421H2881.22C2903.45 72.6423 2921.47 91.2727 2921.49 114.263C2921.51 91.2736 2939.53 72.6437 2961.76 72.6421V72.6411C2939.53 72.6395 2921.51 54.0099 2921.49 31.02Z"/>
</mask>
<path d="M2995.09 72.2134L2995.96 72.7129C2996.14 72.4037 2996.14 72.023 2995.96 71.7139L2995.09 72.2134ZM2956.9 138.444V139.444C2957.26 139.444 2957.59 139.253 2957.77 138.943L2956.9 138.444ZM2880.52 138.444L2879.66 138.943C2879.83 139.253 2880.16 139.444 2880.52 139.444V138.444ZM2842.33 72.2134L2841.47 71.7139C2841.29 72.023 2841.29 72.4037 2841.47 72.7129L2842.33 72.2134ZM2880.52 5.98291V4.98291C2880.16 4.98291 2879.83 5.17372 2879.66 5.48339L2880.52 5.98291ZM2956.9 5.98291L2957.77 5.48339C2957.59 5.17372 2957.26 4.98291 2956.9 4.98291V5.98291ZM2921.49 31.02L2922.49 31.0191C2922.49 30.4672 2922.04 30.02 2921.49 30.02C2920.94 30.02 2920.49 30.4672 2920.49 31.0191L2921.49 31.02ZM2881.22 72.6411L2881.53 71.6924C2881.23 71.5908 2880.89 71.6419 2880.63 71.8299C2880.37 72.0178 2880.22 72.3197 2880.22 72.6411H2881.22ZM2881.22 72.6421H2880.22C2880.22 73.1944 2880.67 73.6421 2881.22 73.6421V72.6421ZM2921.49 114.263L2920.49 114.264C2920.49 114.816 2920.94 115.263 2921.49 115.263C2922.04 115.263 2922.49 114.816 2922.49 114.264L2921.49 114.263ZM2961.76 72.6421L2961.76 73.6421C2962.32 73.6421 2962.76 73.1943 2962.76 72.6421H2961.76ZM2961.76 72.6411H2962.76C2962.76 72.0889 2962.32 71.6412 2961.76 71.6411L2961.76 72.6411ZM2995.09 72.2134L2994.23 71.7139L2956.04 137.944L2956.9 138.444L2957.77 138.943L2995.96 72.7129L2995.09 72.2134ZM2956.9 138.444V137.444H2880.52V138.444V139.444H2956.9V138.444ZM2880.52 138.444L2881.39 137.944L2843.2 71.7139L2842.33 72.2134L2841.47 72.7129L2879.66 138.943L2880.52 138.444ZM2842.33 72.2134L2843.2 72.7129L2881.39 6.48243L2880.52 5.98291L2879.66 5.48339L2841.47 71.7139L2842.33 72.2134ZM2880.52 5.98291V6.98291H2956.9V5.98291V4.98291H2880.52V5.98291ZM2956.9 5.98291L2956.04 6.48243L2994.23 72.7129L2995.09 72.2134L2995.96 71.7139L2957.77 5.48339L2956.9 5.98291ZM2921.49 31.02L2920.49 31.0191C2920.47 53.4903 2902.87 71.6419 2881.22 71.6421L2881.22 72.6421L2881.22 73.6421C2904.03 73.6419 2922.47 54.5314 2922.49 31.0209L2921.49 31.02ZM2881.22 72.6421L2881.54 71.6934L2881.53 71.6924L2881.22 72.6411L2880.9 73.5898L2880.9 73.5908L2881.22 72.6421ZM2881.22 72.6411H2880.22V72.6421H2881.22H2882.22V72.6411H2881.22ZM2881.22 72.6421V73.6421H2881.22V72.6421V71.6421H2881.22V72.6421ZM2881.22 72.6421L2881.22 73.6421C2902.87 73.6423 2920.47 91.7933 2920.49 114.264L2921.49 114.263L2922.49 114.262C2922.47 90.7521 2904.03 71.6423 2881.22 71.6421L2881.22 72.6421ZM2921.49 114.263L2922.49 114.264C2922.51 91.7942 2940.12 73.6436 2961.76 73.6421L2961.76 72.6421L2961.76 71.6421C2938.95 71.6437 2920.51 90.753 2920.49 114.262L2921.49 114.263ZM2961.76 72.6421H2962.76V72.6411H2961.76H2960.76V72.6421H2961.76ZM2961.76 72.6411L2961.76 71.6411C2940.12 71.6396 2922.51 53.4893 2922.49 31.0191L2921.49 31.02L2920.49 31.0209C2920.51 54.5306 2938.95 73.6395 2961.76 73.6411L2961.76 72.6411Z" fill="#323725" mask="url(#path-29-inside-15_136_549)"/>
<mask id="path-31-inside-16_136_549" fill="white">
<path d="M3191.19 140.26H3055.09V4.1665H3191.19V140.26ZM3068.97 65.27V79.1567H3177.29V65.27H3068.97Z"/>
</mask>
<path d="M3191.19 140.26V141.26H3192.19V140.26H3191.19ZM3055.09 140.26H3054.09V141.26H3055.09V140.26ZM3055.09 4.1665V3.1665H3054.09V4.1665H3055.09ZM3191.19 4.1665H3192.19V3.1665H3191.19V4.1665ZM3068.97 65.27V64.27H3067.97V65.27H3068.97ZM3068.97 79.1567H3067.97V80.1567H3068.97V79.1567ZM3177.29 79.1567V80.1567H3178.29V79.1567H3177.29ZM3177.29 65.27H3178.29V64.27H3177.29V65.27ZM3191.19 140.26V139.26H3055.09V140.26V141.26H3191.19V140.26ZM3055.09 140.26H3056.09V4.1665H3055.09H3054.09V140.26H3055.09ZM3055.09 4.1665V5.1665H3191.19V4.1665V3.1665H3055.09V4.1665ZM3191.19 4.1665H3190.19V140.26H3191.19H3192.19V4.1665H3191.19ZM3068.97 65.27H3067.97V79.1567H3068.97H3069.97V65.27H3068.97ZM3068.97 79.1567V80.1567H3177.29V79.1567V78.1567H3068.97V79.1567ZM3177.29 79.1567H3178.29V65.27H3177.29H3176.29V79.1567H3177.29ZM3177.29 65.27V64.27H3068.97V65.27V66.27H3177.29V65.27Z" fill="#323725" mask="url(#path-31-inside-16_136_549)"/>
<mask id="path-33-inside-17_136_549" fill="white">
<path d="M3387.28 140.261H3251.19V4.16602H3387.28V140.261ZM3319.23 62.3916L3285.84 29.0068L3276.02 38.8271L3309.41 72.2119L3276.02 105.6L3285.84 115.419L3319.23 82.0312L3352.62 115.421L3362.44 105.601L3329.05 72.2109L3362.43 38.8262L3352.61 29.0059L3319.23 62.3916Z"/>
</mask>
<path d="M3387.28 140.261V141.261H3388.28V140.261H3387.28ZM3251.19 140.261H3250.19V141.261H3251.19V140.261ZM3251.19 4.16602V3.16602H3250.19V4.16602H3251.19ZM3387.28 4.16602H3388.28V3.16602H3387.28V4.16602ZM3319.23 62.3916L3318.52 63.0987L3319.23 63.8058L3319.93 63.0987L3319.23 62.3916ZM3285.84 29.0068L3286.55 28.2997L3285.84 27.5926L3285.14 28.2997L3285.84 29.0068ZM3276.02 38.8271L3275.32 38.12L3274.61 38.8271L3275.32 39.5343L3276.02 38.8271ZM3309.41 72.2119L3310.11 72.919L3310.82 72.2119L3310.11 71.5048L3309.41 72.2119ZM3276.02 105.6L3275.31 104.893L3274.61 105.6L3275.31 106.307L3276.02 105.6ZM3285.84 115.419L3285.13 116.126L3285.84 116.833L3286.55 116.126L3285.84 115.419ZM3319.23 82.0312L3319.93 81.3241L3319.23 80.617L3318.52 81.3242L3319.23 82.0312ZM3352.62 115.421L3351.91 116.128L3352.62 116.835L3353.32 116.128L3352.62 115.421ZM3362.44 105.601L3363.14 106.308L3363.85 105.601L3363.14 104.893L3362.44 105.601ZM3329.05 72.2109L3328.34 71.5038L3327.63 72.2109L3328.34 72.918L3329.05 72.2109ZM3362.43 38.8262L3363.14 39.5333L3363.85 38.8262L3363.14 38.1191L3362.43 38.8262ZM3352.61 29.0059L3353.32 28.2988L3352.61 27.5916L3351.91 28.2987L3352.61 29.0059ZM3387.28 140.261V139.261H3251.19V140.261V141.261H3387.28V140.261ZM3251.19 140.261H3252.19V4.16602H3251.19H3250.19V140.261H3251.19ZM3251.19 4.16602V5.16602H3387.28V4.16602V3.16602H3251.19V4.16602ZM3387.28 4.16602H3386.28V140.261H3387.28H3388.28V4.16602H3387.28ZM3319.23 62.3916L3319.93 61.6845L3286.55 28.2997L3285.84 29.0068L3285.14 29.7139L3318.52 63.0987L3319.23 62.3916ZM3285.84 29.0068L3285.14 28.2997L3275.32 38.12L3276.02 38.8271L3276.73 39.5343L3286.55 29.7139L3285.84 29.0068ZM3276.02 38.8271L3275.32 39.5343L3308.7 72.919L3309.41 72.2119L3310.11 71.5048L3276.73 38.12L3276.02 38.8271ZM3309.41 72.2119L3308.7 71.5048L3275.31 104.893L3276.02 105.6L3276.73 106.307L3310.11 72.919L3309.41 72.2119ZM3276.02 105.6L3275.31 106.307L3285.13 116.126L3285.84 115.419L3286.55 114.712L3276.73 104.893L3276.02 105.6ZM3285.84 115.419L3286.55 116.126L3319.93 82.7383L3319.23 82.0312L3318.52 81.3242L3285.13 114.712L3285.84 115.419ZM3319.23 82.0312L3318.52 82.7384L3351.91 116.128L3352.62 115.421L3353.32 114.714L3319.93 81.3241L3319.23 82.0312ZM3352.62 115.421L3353.32 116.128L3363.14 106.308L3362.44 105.601L3361.73 104.893L3351.91 114.714L3352.62 115.421ZM3362.44 105.601L3363.14 104.893L3329.75 71.5038L3329.05 72.2109L3328.34 72.918L3361.73 106.308L3362.44 105.601ZM3329.05 72.2109L3329.75 72.9181L3363.14 39.5333L3362.43 38.8262L3361.73 38.119L3328.34 71.5038L3329.05 72.2109ZM3362.43 38.8262L3363.14 38.1191L3353.32 28.2988L3352.61 29.0059L3351.91 29.7129L3361.73 39.5332L3362.43 38.8262ZM3352.61 29.0059L3351.91 28.2987L3318.52 61.6845L3319.23 62.3916L3319.93 63.0987L3353.32 29.713L3352.61 29.0059Z" fill="#323725" mask="url(#path-33-inside-17_136_549)"/>
<mask id="path-35-inside-18_136_549" fill="white">
<path d="M3519.49 0C3559.38 0 3591.71 32.3308 3591.71 72.2129C3591.71 112.095 3559.38 144.427 3519.49 144.427C3479.61 144.426 3447.28 112.095 3447.28 72.2129C3447.28 32.3309 3479.61 0.000258425 3519.49 0ZM3472.36 72.2139L3519.5 119.349L3566.63 72.2139L3519.5 25.0791L3472.36 72.2139Z"/>
</mask>
<path d="M3519.49 0L3519.49 -1L3519.49 -1L3519.49 0ZM3591.71 72.2129L3592.71 72.2129L3592.71 72.2129L3591.71 72.2129ZM3519.49 144.427L3519.49 145.427H3519.49V144.427ZM3447.28 72.2129L3446.28 72.2129V72.2129H3447.28ZM3472.36 72.2139L3471.65 71.5068L3470.95 72.2139L3471.65 72.921L3472.36 72.2139ZM3519.5 119.349L3518.79 120.056L3519.5 120.763L3520.2 120.056L3519.5 119.349ZM3566.63 72.2139L3567.34 72.921L3568.04 72.2139L3567.34 71.5068L3566.63 72.2139ZM3519.5 25.0791L3520.2 24.372L3519.5 23.6649L3518.79 24.372L3519.5 25.0791ZM3519.49 0V1C3558.82 1 3590.71 32.8831 3590.71 72.2129L3591.71 72.2129L3592.71 72.2129C3592.71 31.7785 3559.93 -1 3519.49 -1V0ZM3591.71 72.2129H3590.71C3590.71 111.543 3558.82 143.427 3519.49 143.427V144.427V145.427C3559.93 145.427 3592.71 112.647 3592.71 72.2129H3591.71ZM3519.49 144.427L3519.49 143.427C3480.16 143.427 3448.28 111.543 3448.28 72.2129H3447.28H3446.28C3446.28 112.647 3479.06 145.426 3519.49 145.427L3519.49 144.427ZM3447.28 72.2129L3448.28 72.2129C3448.28 32.8832 3480.16 1.00025 3519.49 1L3519.49 0L3519.49 -1C3479.06 -0.999738 3446.28 31.7787 3446.28 72.2129L3447.28 72.2129ZM3472.36 72.2139L3471.65 72.921L3518.79 120.056L3519.5 119.349L3520.2 118.642L3473.07 71.5068L3472.36 72.2139ZM3519.5 119.349L3520.2 120.056L3567.34 72.921L3566.63 72.2139L3565.92 71.5068L3518.79 118.642L3519.5 119.349ZM3566.63 72.2139L3567.34 71.5068L3520.2 24.372L3519.5 25.0791L3518.79 25.7862L3565.92 72.921L3566.63 72.2139ZM3519.5 25.0791L3518.79 24.372L3471.65 71.5068L3472.36 72.2139L3473.07 72.921L3520.2 25.7862L3519.5 25.0791Z" fill="#323725" mask="url(#path-35-inside-18_136_549)"/>
</svg>
